<svg width="32" height="32" viewBox="0 0 32 32" fill="none" xmlns="http://www.w3.org/2000/svg">
<path d="M18.84 15.12C19.36 12.9334 17.4533 11.0267 15.2667 11.5467C14.24 11.8 13.4 12.64 13.1467 13.6667C12.6267 15.8534 14.5333 17.76 16.72 17.24C17.76 16.9867 18.6 16.1467 18.84 15.12Z" stroke="#1D498D" stroke-width="1.8"/>
<path d="M8.02667 23.96C7.78667 23.96 7.53333 23.8667 7.34667 23.6934C4.76 21.2934 3.28 17.9067 3.28 14.3867C3.28 7.37335 8.98667 1.66669 16 1.66669C23.0133 1.66669 28.72 7.37335 28.72 14.3867C28.72 17.9334 27.2933 21.2134 24.7067 23.6534C24.3067 24.0267 23.6667 24.0134 23.2933 23.6134C22.92 23.2134 22.9333 22.5734 23.3333 22.2C25.52 20.1467 26.72 17.3867 26.72 14.4C26.72 8.49335 21.9067 3.68002 16 3.68002C10.0933 3.68002 5.28 8.49335 5.28 14.4C5.28 17.4134 6.49333 20.1867 8.70667 22.24C9.10667 22.6134 9.13333 23.2534 8.76 23.6534C8.56 23.8534 8.29333 23.96 8.02667 23.96Z" fill="#1D498D"/>
<path d="M21.3333 20.4C21.0933 20.4 20.84 20.3067 20.6533 20.1334C20.2533 19.76 20.2267 19.12 20.6133 18.72C21.72 17.5467 22.3333 16 22.3333 14.4C22.3333 10.9067 19.4933 8.08002 16.0133 8.08002C12.5333 8.08002 9.69333 10.92 9.69333 14.4C9.69333 16.0134 10.3067 17.5467 11.4133 18.72C11.7867 19.12 11.7733 19.76 11.3733 20.1334C10.9733 20.52 10.3333 20.4934 9.96 20.0933C8.50666 18.5467 7.69333 16.52 7.69333 14.4C7.69333 9.81335 11.4267 6.08002 16.0133 6.08002C20.6 6.08002 24.3333 9.81335 24.3333 14.4C24.3333 16.52 23.5333 18.5467 22.0667 20.0933C21.8667 20.2934 21.6 20.4 21.3333 20.4Z" fill="#1D498D"/>
<path d="M13.7333 22.2133L11.8133 24.6C10.2933 26.5067 11.6533 29.3333 14.08 29.3333H17.9067C20.3467 29.3333 21.7067 26.5067 20.1733 24.6133L18.2533 22.2267C17.1067 20.76 14.8933 20.76 13.7333 22.2133Z" stroke="#1D498D" stroke-width="1.8"/>
</svg>
