<svg width="32" height="32" viewBox="0 0 32 32" fill="none" xmlns="http://www.w3.org/2000/svg">
<circle cx="16" cy="16" r="15.5" stroke="#F2F7FF"/>
<path d="M16.0026 11.0574V14.0174" stroke="#1D498D" stroke-width="1.5" stroke-miterlimit="10" stroke-linecap="round"/>
<path d="M23.6382 18.8175C24.287 19.9019 23.7715 21.3063 22.5715 21.7063C18.3226 23.1197 13.727 23.1197 9.47816 21.7063C8.19816 21.2797 7.70927 19.9819 8.41149 18.8175L9.54038 16.933C9.85149 16.4175 10.1004 15.5019 10.1004 14.9063V13.0397C10.1004 9.75968 12.7493 7.11079 16.0204 7.11079C19.2737 7.11079 21.9404 9.77745 21.9404 13.0308V14.8975C21.9404 15.0575 21.9582 15.2352 21.9848 15.4219" stroke="#1D498D" stroke-width="1.5" stroke-miterlimit="10" stroke-linecap="round"/>
<path d="M18.9626 22.0619C18.9626 23.6886 17.6293 25.0219 16.0026 25.0219C15.1937 25.0219 14.447 24.6841 13.9137 24.1508C13.3804 23.6175 13.0426 22.8708 13.0426 22.0619" stroke="#1D498D" stroke-width="1.5" stroke-miterlimit="10"/>
</svg>
